<mxfile host="app.diagrams.net" modified="2023-06-17T07:18:19.886Z" agent="Mozilla/5.0 (Windows NT 10.0; Win64; x64) AppleWebKit/537.36 (KHTML, like Gecko) Chrome/114.0.0.0 Safari/537.36" etag="qRJDAItHBkleNygm0wB4" version="21.4.0" type="github">
  <diagram name="第 1 页" id="b3edpHO0o_XBkNvwWTvV">
    <mxGraphModel dx="819" dy="455" grid="0" gridSize="10" guides="1" tooltips="1" connect="1" arrows="1" fold="1" page="1" pageScale="1" pageWidth="827" pageHeight="1169" math="0" shadow="0">
      <root>
        <mxCell id="0" />
        <mxCell id="1" parent="0" />
        <mxCell id="Rt7cz5hr1q7wc7oKEFNd-46" style="edgeStyle=orthogonalEdgeStyle;rounded=0;orthogonalLoop=1;jettySize=auto;html=1;exitX=0;exitY=0.5;exitDx=0;exitDy=0;entryX=0.319;entryY=0.968;entryDx=0;entryDy=0;entryPerimeter=0;" edge="1" parent="1" source="Rt7cz5hr1q7wc7oKEFNd-10" target="Rt7cz5hr1q7wc7oKEFNd-2">
          <mxGeometry relative="1" as="geometry" />
        </mxCell>
        <mxCell id="Rt7cz5hr1q7wc7oKEFNd-10" value="TErrorState" style="rounded=1;whiteSpace=wrap;html=1;" vertex="1" parent="1">
          <mxGeometry x="670" y="297" width="127.5" height="37" as="geometry" />
        </mxCell>
        <mxCell id="Rt7cz5hr1q7wc7oKEFNd-16" style="edgeStyle=orthogonalEdgeStyle;rounded=0;orthogonalLoop=1;jettySize=auto;html=1;exitX=0.75;exitY=0;exitDx=0;exitDy=0;entryX=0.5;entryY=0;entryDx=0;entryDy=0;" edge="1" parent="1" source="Rt7cz5hr1q7wc7oKEFNd-2" target="Rt7cz5hr1q7wc7oKEFNd-6">
          <mxGeometry relative="1" as="geometry" />
        </mxCell>
        <mxCell id="Rt7cz5hr1q7wc7oKEFNd-18" style="edgeStyle=orthogonalEdgeStyle;rounded=0;orthogonalLoop=1;jettySize=auto;html=1;exitX=1;exitY=0.25;exitDx=0;exitDy=0;" edge="1" parent="1" source="Rt7cz5hr1q7wc7oKEFNd-2" target="Rt7cz5hr1q7wc7oKEFNd-9">
          <mxGeometry relative="1" as="geometry" />
        </mxCell>
        <mxCell id="Rt7cz5hr1q7wc7oKEFNd-19" style="edgeStyle=orthogonalEdgeStyle;rounded=0;orthogonalLoop=1;jettySize=auto;html=1;exitX=0.75;exitY=0;exitDx=0;exitDy=0;entryX=0.25;entryY=0;entryDx=0;entryDy=0;" edge="1" parent="1" source="Rt7cz5hr1q7wc7oKEFNd-2" target="Rt7cz5hr1q7wc7oKEFNd-10">
          <mxGeometry relative="1" as="geometry" />
        </mxCell>
        <mxCell id="Rt7cz5hr1q7wc7oKEFNd-20" style="edgeStyle=orthogonalEdgeStyle;rounded=0;orthogonalLoop=1;jettySize=auto;html=1;exitX=0.75;exitY=1;exitDx=0;exitDy=0;entryX=0.5;entryY=1;entryDx=0;entryDy=0;" edge="1" parent="1" source="Rt7cz5hr1q7wc7oKEFNd-2" target="Rt7cz5hr1q7wc7oKEFNd-7">
          <mxGeometry relative="1" as="geometry" />
        </mxCell>
        <mxCell id="Rt7cz5hr1q7wc7oKEFNd-2" value="TNumberInputState" style="rounded=1;whiteSpace=wrap;html=1;" vertex="1" parent="1">
          <mxGeometry x="262" y="253" width="124" height="36" as="geometry" />
        </mxCell>
        <mxCell id="Rt7cz5hr1q7wc7oKEFNd-4" value="" style="ellipse;fillColor=strokeColor;html=1;" vertex="1" parent="1">
          <mxGeometry x="167" y="253" width="30" height="30" as="geometry" />
        </mxCell>
        <mxCell id="Rt7cz5hr1q7wc7oKEFNd-26" style="edgeStyle=orthogonalEdgeStyle;rounded=0;orthogonalLoop=1;jettySize=auto;html=1;exitX=1;exitY=0.5;exitDx=0;exitDy=0;entryX=0.006;entryY=0.398;entryDx=0;entryDy=0;entryPerimeter=0;" edge="1" parent="1" source="Rt7cz5hr1q7wc7oKEFNd-6" target="Rt7cz5hr1q7wc7oKEFNd-9">
          <mxGeometry relative="1" as="geometry" />
        </mxCell>
        <mxCell id="Rt7cz5hr1q7wc7oKEFNd-28" style="edgeStyle=orthogonalEdgeStyle;rounded=0;orthogonalLoop=1;jettySize=auto;html=1;exitX=0.5;exitY=1;exitDx=0;exitDy=0;entryX=0.389;entryY=-0.036;entryDx=0;entryDy=0;entryPerimeter=0;" edge="1" parent="1" source="Rt7cz5hr1q7wc7oKEFNd-6" target="Rt7cz5hr1q7wc7oKEFNd-7">
          <mxGeometry relative="1" as="geometry" />
        </mxCell>
        <mxCell id="Rt7cz5hr1q7wc7oKEFNd-37" style="edgeStyle=orthogonalEdgeStyle;rounded=0;orthogonalLoop=1;jettySize=auto;html=1;exitX=0;exitY=0.5;exitDx=0;exitDy=0;entryX=0.25;entryY=0;entryDx=0;entryDy=0;" edge="1" parent="1" source="Rt7cz5hr1q7wc7oKEFNd-6" target="Rt7cz5hr1q7wc7oKEFNd-2">
          <mxGeometry relative="1" as="geometry" />
        </mxCell>
        <mxCell id="Rt7cz5hr1q7wc7oKEFNd-6" value="TUnaryOperatorState" style="rounded=1;whiteSpace=wrap;html=1;" vertex="1" parent="1">
          <mxGeometry x="457" y="146" width="126" height="36" as="geometry" />
        </mxCell>
        <mxCell id="Rt7cz5hr1q7wc7oKEFNd-31" style="edgeStyle=orthogonalEdgeStyle;rounded=0;orthogonalLoop=1;jettySize=auto;html=1;exitX=1;exitY=0.5;exitDx=0;exitDy=0;entryX=0.84;entryY=0.985;entryDx=0;entryDy=0;entryPerimeter=0;" edge="1" parent="1" source="Rt7cz5hr1q7wc7oKEFNd-7" target="Rt7cz5hr1q7wc7oKEFNd-9">
          <mxGeometry relative="1" as="geometry" />
        </mxCell>
        <mxCell id="Rt7cz5hr1q7wc7oKEFNd-33" style="edgeStyle=orthogonalEdgeStyle;rounded=0;orthogonalLoop=1;jettySize=auto;html=1;exitX=0.75;exitY=0;exitDx=0;exitDy=0;entryX=1;entryY=0.5;entryDx=0;entryDy=0;" edge="1" parent="1" source="Rt7cz5hr1q7wc7oKEFNd-7" target="Rt7cz5hr1q7wc7oKEFNd-9">
          <mxGeometry relative="1" as="geometry" />
        </mxCell>
        <mxCell id="Rt7cz5hr1q7wc7oKEFNd-35" style="edgeStyle=orthogonalEdgeStyle;rounded=0;orthogonalLoop=1;jettySize=auto;html=1;exitX=0;exitY=0.5;exitDx=0;exitDy=0;entryX=0.891;entryY=1;entryDx=0;entryDy=0;entryPerimeter=0;" edge="1" parent="1" source="Rt7cz5hr1q7wc7oKEFNd-7" target="Rt7cz5hr1q7wc7oKEFNd-2">
          <mxGeometry relative="1" as="geometry" />
        </mxCell>
        <mxCell id="Rt7cz5hr1q7wc7oKEFNd-7" value="TBinaryOperator" style="rounded=1;whiteSpace=wrap;html=1;" vertex="1" parent="1">
          <mxGeometry x="471" y="347" width="127" height="40" as="geometry" />
        </mxCell>
        <mxCell id="Rt7cz5hr1q7wc7oKEFNd-39" style="edgeStyle=orthogonalEdgeStyle;rounded=0;orthogonalLoop=1;jettySize=auto;html=1;exitX=0.5;exitY=0;exitDx=0;exitDy=0;entryX=0.081;entryY=0;entryDx=0;entryDy=0;entryPerimeter=0;" edge="1" parent="1" source="Rt7cz5hr1q7wc7oKEFNd-9" target="Rt7cz5hr1q7wc7oKEFNd-2">
          <mxGeometry relative="1" as="geometry">
            <mxPoint x="272" y="14" as="targetPoint" />
            <Array as="points">
              <mxPoint x="734" y="97" />
              <mxPoint x="272" y="97" />
            </Array>
          </mxGeometry>
        </mxCell>
        <mxCell id="Rt7cz5hr1q7wc7oKEFNd-41" style="edgeStyle=orthogonalEdgeStyle;rounded=0;orthogonalLoop=1;jettySize=auto;html=1;exitX=0;exitY=0.75;exitDx=0;exitDy=0;entryX=0.75;entryY=1;entryDx=0;entryDy=0;" edge="1" parent="1" source="Rt7cz5hr1q7wc7oKEFNd-9" target="Rt7cz5hr1q7wc7oKEFNd-6">
          <mxGeometry relative="1" as="geometry" />
        </mxCell>
        <mxCell id="Rt7cz5hr1q7wc7oKEFNd-44" style="edgeStyle=orthogonalEdgeStyle;rounded=0;orthogonalLoop=1;jettySize=auto;html=1;exitX=0.75;exitY=0;exitDx=0;exitDy=0;entryX=0.787;entryY=1;entryDx=0;entryDy=0;entryPerimeter=0;" edge="1" parent="1" source="Rt7cz5hr1q7wc7oKEFNd-9" target="Rt7cz5hr1q7wc7oKEFNd-7">
          <mxGeometry relative="1" as="geometry">
            <mxPoint x="895" y="430" as="targetPoint" />
            <Array as="points">
              <mxPoint x="766" y="159" />
              <mxPoint x="880" y="159" />
              <mxPoint x="880" y="417" />
              <mxPoint x="571" y="417" />
            </Array>
          </mxGeometry>
        </mxCell>
        <mxCell id="Rt7cz5hr1q7wc7oKEFNd-9" value="TResultState" style="rounded=1;whiteSpace=wrap;html=1;" vertex="1" parent="1">
          <mxGeometry x="670" y="179" width="128" height="38" as="geometry" />
        </mxCell>
        <mxCell id="Rt7cz5hr1q7wc7oKEFNd-11" value="" style="endArrow=classic;html=1;rounded=0;" edge="1" parent="1" target="Rt7cz5hr1q7wc7oKEFNd-2">
          <mxGeometry width="50" height="50" relative="1" as="geometry">
            <mxPoint x="197" y="270" as="sourcePoint" />
            <mxPoint x="247" y="220" as="targetPoint" />
          </mxGeometry>
        </mxCell>
        <mxCell id="Rt7cz5hr1q7wc7oKEFNd-21" value="输入数字" style="text;html=1;strokeColor=none;fillColor=none;align=center;verticalAlign=middle;whiteSpace=wrap;rounded=0;" vertex="1" parent="1">
          <mxGeometry x="200" y="244" width="60" height="30" as="geometry" />
        </mxCell>
        <mxCell id="Rt7cz5hr1q7wc7oKEFNd-22" value="输入单目运算符" style="text;html=1;strokeColor=none;fillColor=none;align=center;verticalAlign=middle;whiteSpace=wrap;rounded=0;" vertex="1" parent="1">
          <mxGeometry x="381" y="97" width="94" height="30" as="geometry" />
        </mxCell>
        <mxCell id="Rt7cz5hr1q7wc7oKEFNd-23" value="输入单目运算符" style="text;html=1;strokeColor=none;fillColor=none;align=center;verticalAlign=middle;whiteSpace=wrap;rounded=0;" vertex="1" parent="1">
          <mxGeometry x="417" y="207" width="95" height="30" as="geometry" />
        </mxCell>
        <mxCell id="Rt7cz5hr1q7wc7oKEFNd-24" value="输入等号" style="text;html=1;strokeColor=none;fillColor=none;align=center;verticalAlign=middle;whiteSpace=wrap;rounded=0;" vertex="1" parent="1">
          <mxGeometry x="434.5" y="259" width="60" height="30" as="geometry" />
        </mxCell>
        <mxCell id="Rt7cz5hr1q7wc7oKEFNd-25" value="输入双目运算符" style="text;html=1;strokeColor=none;fillColor=none;align=center;verticalAlign=middle;whiteSpace=wrap;rounded=0;" vertex="1" parent="1">
          <mxGeometry x="373" y="381" width="102" height="30" as="geometry" />
        </mxCell>
        <mxCell id="Rt7cz5hr1q7wc7oKEFNd-27" value="输入单目运算符" style="text;html=1;strokeColor=none;fillColor=none;align=center;verticalAlign=middle;whiteSpace=wrap;rounded=0;" vertex="1" parent="1">
          <mxGeometry x="591" y="135" width="94" height="30" as="geometry" />
        </mxCell>
        <mxCell id="Rt7cz5hr1q7wc7oKEFNd-29" value="输入双目运算符" style="text;html=1;strokeColor=none;fillColor=none;align=center;verticalAlign=middle;whiteSpace=wrap;rounded=0;" vertex="1" parent="1">
          <mxGeometry x="522" y="285" width="92" height="21" as="geometry" />
        </mxCell>
        <mxCell id="Rt7cz5hr1q7wc7oKEFNd-32" value="&lt;span style=&quot;color: rgb(0, 0, 0); font-family: Helvetica; font-size: 12px; font-style: normal; font-variant-ligatures: normal; font-variant-caps: normal; font-weight: 400; letter-spacing: normal; orphans: 2; text-align: center; text-indent: 0px; text-transform: none; widows: 2; word-spacing: 0px; -webkit-text-stroke-width: 0px; background-color: rgb(251, 251, 251); text-decoration-thickness: initial; text-decoration-style: initial; text-decoration-color: initial; float: none; display: inline !important;&quot;&gt;输入单目运算符&lt;/span&gt;" style="text;whiteSpace=wrap;html=1;" vertex="1" parent="1">
          <mxGeometry x="648.0014285714286" y="361.99857142857144" width="112" height="36" as="geometry" />
        </mxCell>
        <mxCell id="Rt7cz5hr1q7wc7oKEFNd-34" value="输入等号" style="text;html=1;strokeColor=none;fillColor=none;align=center;verticalAlign=middle;whiteSpace=wrap;rounded=0;" vertex="1" parent="1">
          <mxGeometry x="815" y="241" width="60" height="30" as="geometry" />
        </mxCell>
        <mxCell id="Rt7cz5hr1q7wc7oKEFNd-36" value="输入数字" style="text;html=1;strokeColor=none;fillColor=none;align=center;verticalAlign=middle;whiteSpace=wrap;rounded=0;" vertex="1" parent="1">
          <mxGeometry x="401" y="343" width="60" height="30" as="geometry" />
        </mxCell>
        <mxCell id="Rt7cz5hr1q7wc7oKEFNd-38" value="输入数字" style="text;html=1;strokeColor=none;fillColor=none;align=center;verticalAlign=middle;whiteSpace=wrap;rounded=0;" vertex="1" parent="1">
          <mxGeometry x="294" y="140" width="60" height="30" as="geometry" />
        </mxCell>
        <mxCell id="Rt7cz5hr1q7wc7oKEFNd-40" value="输入数字" style="text;html=1;strokeColor=none;fillColor=none;align=center;verticalAlign=middle;whiteSpace=wrap;rounded=0;" vertex="1" parent="1">
          <mxGeometry x="494.5" y="75" width="60" height="30" as="geometry" />
        </mxCell>
        <mxCell id="Rt7cz5hr1q7wc7oKEFNd-42" value="输入单目运算符" style="text;html=1;strokeColor=none;fillColor=none;align=center;verticalAlign=middle;whiteSpace=wrap;rounded=0;" vertex="1" parent="1">
          <mxGeometry x="576" y="200" width="91" height="30" as="geometry" />
        </mxCell>
        <mxCell id="Rt7cz5hr1q7wc7oKEFNd-45" value="输入双目运算符" style="text;html=1;strokeColor=none;fillColor=none;align=center;verticalAlign=middle;whiteSpace=wrap;rounded=0;" vertex="1" parent="1">
          <mxGeometry x="743" y="392" width="88" height="30" as="geometry" />
        </mxCell>
        <mxCell id="Rt7cz5hr1q7wc7oKEFNd-47" value="输入数字" style="text;html=1;strokeColor=none;fillColor=none;align=center;verticalAlign=middle;whiteSpace=wrap;rounded=0;" vertex="1" parent="1">
          <mxGeometry x="394" y="292" width="60" height="30" as="geometry" />
        </mxCell>
        <mxCell id="Rt7cz5hr1q7wc7oKEFNd-48" value="" style="curved=1;endArrow=classic;html=1;rounded=0;movable=1;resizable=1;rotatable=1;deletable=1;editable=1;locked=0;connectable=1;" edge="1" parent="1">
          <mxGeometry width="50" height="50" relative="1" as="geometry">
            <mxPoint x="536" y="146" as="sourcePoint" />
            <mxPoint x="573" y="148" as="targetPoint" />
            <Array as="points">
              <mxPoint x="534" y="108" />
              <mxPoint x="570" y="105" />
            </Array>
          </mxGeometry>
        </mxCell>
        <mxCell id="Rt7cz5hr1q7wc7oKEFNd-50" value="输入单目运算符" style="text;html=1;strokeColor=none;fillColor=none;align=center;verticalAlign=middle;whiteSpace=wrap;rounded=0;" vertex="1" parent="1">
          <mxGeometry x="564" y="99" width="94" height="30" as="geometry" />
        </mxCell>
        <mxCell id="Rt7cz5hr1q7wc7oKEFNd-56" value="" style="curved=1;endArrow=classic;html=1;rounded=0;movable=1;resizable=1;rotatable=1;deletable=1;editable=1;locked=0;connectable=1;" edge="1" parent="1">
          <mxGeometry width="50" height="50" relative="1" as="geometry">
            <mxPoint x="306.5" y="251" as="sourcePoint" />
            <mxPoint x="343.5" y="253" as="targetPoint" />
            <Array as="points">
              <mxPoint x="304.5" y="213" />
              <mxPoint x="340.5" y="210" />
            </Array>
          </mxGeometry>
        </mxCell>
        <mxCell id="Rt7cz5hr1q7wc7oKEFNd-57" value="输入数字" style="text;html=1;strokeColor=none;fillColor=none;align=center;verticalAlign=middle;whiteSpace=wrap;rounded=0;" vertex="1" parent="1">
          <mxGeometry x="300" y="187" width="60" height="30" as="geometry" />
        </mxCell>
      </root>
    </mxGraphModel>
  </diagram>
</mxfile>
